<?xml version="1.0" encoding="utf-8"?>
<!-- Generator: Adobe Illustrator 27.5.0, SVG Export Plug-In . SVG Version: 6.00 Build 0)  -->
<svg version="1.1" id="Ebene_1" xmlns="http://www.w3.org/2000/svg" xmlns:xlink="http://www.w3.org/1999/xlink" x="0px" y="0px"
	 viewBox="0 0 157.66 179.12" style="enable-background:new 0 0 157.66 179.12;" xml:space="preserve">
<style type="text/css">
	.st0{fill:#FEEB23;stroke:#FEEB23;stroke-width:9;stroke-miterlimit:10;}
	.st1{fill:#FEEB23;}
	.st2{font-family:'NightMachine';}
	.st3{font-size:72px;}
	.st4{font-size:25.13px;}
</style>
<path class="st0" d="M106.69,149.65c13.72-11.35,23.31-27.7,26.21-45.29c3.46-20.97-2.65-43.33-16.3-59.63S82.03,18.47,60.78,18.18
	c-2.88-0.04-5.76,0.09-8.62,0.38c-1.33,0.14-2.65,0.34-3.97,0.55c-1.13,0.18-2.89,0.26-3.48,1.34c-0.22,0.4-0.21,0.92-0.13,1.36
	c0.25,1.39,3.47,4.02,1.07,5.13c-0.5,0.23-1.08,0.23-1.64,0.17c-3.47-0.39-6.27-2.83-8.88-4.94c-0.73-0.59-1.46-1.17-2.22-1.71
	c-0.52-0.37-1.04-0.74-1.45-1.22c-1.11-1.28-0.66-2.45,0.45-3.51c1.46-1.46,9.08-10.79,10.77-6.8c0.45,1.06,0.34,2.31,0.92,3.3
	c1.09,1.86,3.77,1.73,5.91,1.44c25.2-3.38,51.8,6.22,69.03,24.91s24.65,45.97,19.25,70.82s-23.48,46.59-46.92,56.43
	c-6.75,2.84-13.9,4.73-21.17,5.6c-18.25,2.19-37.17-2.29-52.67-12.17c-1.68-1.07-3.54-3.09-2.45-4.76c1.13-1.73,3.79-0.71,5.54,0.4
	c18.24,11.59,41.69,14.6,62.28,8c5.58-1.79,10.94-4.24,15.94-7.29C101.26,153.83,104.05,151.84,106.69,149.65z"/>
<text transform="matrix(1 0 0 1 14.2557 104.3504)" class="st1 st2 st3">30</text>
<text transform="matrix(1.0513 0 0 1 28.096 133.4048)" class="st1 st2 st4">TAGE</text>
</svg>
